<?xml version="1.0" encoding="UTF-8"?>
<svg width="19px" height="19px" viewBox="0 0 19 19" version="1.1" xmlns="http://www.w3.org/2000/svg" xmlns:xlink="http://www.w3.org/1999/xlink">
    <title>Instagram</title>
    <g id="2" stroke="none" stroke-width="1" fill="none" fill-rule="evenodd">
        <g id="Future-/-Model" transform="translate(-241.000000, -469.000000)" fill="#FFFFFF" fill-rule="nonzero">
            <path d="M254.5,469.25 C257.142011,469.25 259.297304,471.333887 259.411876,473.947659 L259.416667,474.166667 L259.416667,482.5 C259.416667,485.142011 257.332779,487.297304 254.719008,487.411876 L254.5,487.416667 L246.166667,487.416667 C243.524656,487.416667 241.369363,485.332779 241.254791,482.719008 L241.25,482.5 L241.25,474.166667 C241.25,471.524656 243.333887,469.369363 245.947659,469.254791 L246.166667,469.25 L254.5,469.25 Z M254.5,470.75 L246.166667,470.75 C244.342593,470.75 242.852377,472.179414 242.755056,473.979204 L242.75,474.166667 L242.75,482.5 C242.75,484.324074 244.179414,485.81429 245.979204,485.911611 L246.166667,485.916667 L254.5,485.916667 C256.324074,485.916667 257.81429,484.487253 257.911611,482.687463 L257.916667,482.5 L257.916667,474.166667 C257.916667,472.342593 256.487253,470.852377 254.687463,470.755056 L254.5,470.75 Z M250.968346,474.258112 C252.747635,474.521959 254.144708,475.919032 254.408554,477.698321 C254.66695,479.440854 253.778726,481.152662 252.205215,481.944654 C250.631703,482.736647 248.727666,482.430262 247.482036,481.184631 C246.236405,479.939 245.93002,478.034964 246.722012,476.461452 C247.514005,474.88794 249.225812,473.999717 250.968346,474.258112 Z M248.061865,477.135837 C247.560808,478.131324 247.754644,479.335919 248.542696,480.123971 C249.330748,480.912023 250.535342,481.105858 251.53083,480.604802 C252.526317,480.103746 253.088254,479.020765 252.924779,477.918346 C252.757856,476.792673 251.873993,475.908811 250.748321,475.741888 C249.645902,475.578413 248.562921,476.14035 248.061865,477.135837 Z M255.016088,472.808109 C255.451817,472.872722 255.793944,473.21485 255.858557,473.650578 C255.921836,474.077305 255.70432,474.496508 255.318984,474.690458 C254.933648,474.884408 254.467371,474.809378 254.16233,474.504337 C253.857289,474.199296 253.782258,473.733018 253.976208,473.347683 C254.170159,472.962347 254.589361,472.744831 255.016088,472.808109 Z" id="Instagram"></path>
        </g>
    </g>
</svg>