<?xml version="1.0" encoding="UTF-8"?>
<svg width="18px" height="18px" viewBox="0 0 18 18" version="1.1" xmlns="http://www.w3.org/2000/svg" xmlns:xlink="http://www.w3.org/1999/xlink">
    <title>Mail</title>
    <g id="2" stroke="none" stroke-width="1" fill="none" fill-rule="evenodd">
        <g id="Future-/-Model" transform="translate(-241.000000, -526.000000)" fill="#FFFFFF" fill-rule="nonzero">
            <path d="M241.299991,527.269234 C241.056149,526.635246 241.713343,526.029573 242.325362,526.324249 L242.325362,526.324249 L258.235264,533.984572 C258.241341,533.987498 258.247352,533.990485 258.253298,533.993532 C258.274226,534.004179 258.294498,534.015884 258.314145,534.028479 C258.32852,534.037278 258.341845,534.046306 258.354759,534.055662 C258.364752,534.063788 258.375466,534.072124 258.385943,534.080739 C258.62888,534.276435 258.709982,534.594053 258.630268,534.871627 C258.627481,534.879304 258.624947,534.887449 258.62228,534.895533 C258.603717,534.955021 258.57703,535.012278 258.542862,535.065832 C258.53866,535.069375 258.535746,535.07381 258.532787,535.078212 C258.46396,535.184069 258.364321,535.273936 258.235264,535.336075 L258.323516,535.286061 C258.290526,535.307911 258.255708,535.327222 258.21934,535.343715 L242.325362,542.996398 C241.713343,543.291074 241.056149,542.685401 241.299991,542.051413 L241.299991,542.051413 L244.143,534.66 Z M254.621862,535.409551 L245.460862,535.409551 L243.379,540.823 L254.621862,535.409551 Z M243.379,528.496 L245.460862,533.909551 L254.621862,533.909551 L243.379,528.496 Z" id="Mail"></path>
        </g>
    </g>
</svg>