<?xml version="1.0" encoding="UTF-8"?>
<svg width="17px" height="13px" viewBox="0 0 17 13" version="1.1" xmlns="http://www.w3.org/2000/svg" xmlns:xlink="http://www.w3.org/1999/xlink">
    <title>menu</title>
    <g id="2" stroke="none" stroke-width="1" fill="none" fill-rule="evenodd">
        <g id="Future-/-Model" transform="translate(-242.000000, -418.000000)" fill="#FFFFFF" fill-rule="nonzero">
            <path d="M258,423.666667 C258.414214,423.666667 258.75,424.002453 258.75,424.416667 C258.75,424.796362 258.467846,425.110158 258.101771,425.15982 L258,425.166667 L243,425.166667 C242.585786,425.166667 242.25,424.83088 242.25,424.416667 C242.25,424.036971 242.532154,423.723176 242.898229,423.673513 L243,423.666667 L258,423.666667 Z M258,418.666667 C258.414214,418.666667 258.75,419.002453 258.75,419.416667 C258.75,419.796362 258.467846,420.110158 258.101771,420.15982 L258,420.166667 L243,420.166667 C242.585786,420.166667 242.25,419.83088 242.25,419.416667 C242.25,419.036971 242.532154,418.723176 242.898229,418.673513 L243,418.666667 L258,418.666667 Z M258,428.666667 C258.414214,428.666667 258.75,429.002453 258.75,429.416667 C258.75,429.796362 258.467846,430.110158 258.101771,430.15982 L258,430.166667 L243,430.166667 C242.585786,430.166667 242.25,429.83088 242.25,429.416667 C242.25,429.036971 242.532154,428.723176 242.898229,428.673513 L243,428.666667 L258,428.666667 Z" id="menu" transform="translate(250.500000, 424.416667) rotate(-360.000000) translate(-250.500000, -424.416667) "></path>
        </g>
    </g>
</svg>