<?xml version="1.0" encoding="UTF-8"?>
<svg width="13px" height="46px" viewBox="0 0 13 46" version="1.1" xmlns="http://www.w3.org/2000/svg" xmlns:xlink="http://www.w3.org/1999/xlink">
    <title>logo</title>
    <g id="2" stroke="none" stroke-width="1" fill="none" fill-rule="evenodd">
        <g id="Cars-/-about" transform="translate(-55.000000, -57.000000)" fill="#FFFFFF">
            <path d="M68,76.0237813 L58.2497744,76.0237813 L58.2497744,66.7810294 C58.2990408,65.2665178 59.1524494,60.2379516 68,60.1723639 L68,57 C63.6078959,57.0146338 60.2326999,58.1179881 57.9689743,60.2869661 C55.0539584,63.0802614 55,66.7464724 55,66.7810294 L55,79.2128948 L68,79.2128948 L68,76.0237813 Z M68,99.8276361 C59.1524494,99.7615194 58.2990408,94.7334822 58.2497744,93.2189706 L58.2497744,88.7302687 L68,88.7302687 L68,85.5552601 L58.2497744,85.5552601 L58.2497744,83.9723399 L68,83.9723399 L68,80.7834027 L55,80.7834027 L55,93.2189706 C55,93.2535276 55.0539584,96.9199149 57.9689743,99.7130339 C60.2326999,101.882012 63.6078959,102.985366 68,103 L68,99.8276361 Z" id="logo"></path>
        </g>
    </g>
</svg>