<?xml version="1.0" encoding="UTF-8"?>
<svg width="24px" height="24px" viewBox="0 0 24 24" version="1.1" xmlns="http://www.w3.org/2000/svg" xmlns:xlink="http://www.w3.org/1999/xlink">
    <title>Icons / SendMail</title>
    <g id="Icons-/-SendMail" stroke="none" stroke-width="1" fill="none" fill-rule="evenodd">
        <rect id="transp" fill-opacity="0" fill="#D8D8D8" x="0" y="0" width="24" height="24"></rect>
        <path d="M3.34503951,4.60891085 C3.10119785,3.97492254 3.7583922,3.36924984 4.37041043,3.66392528 L4.37041043,3.66392528 L20.280313,11.3242487 C20.2863895,11.3271745 20.2924007,11.3301616 20.2983468,11.333209 C20.3192744,11.3438559 20.3395471,11.3555603 20.3591937,11.3681559 C20.3735692,11.3769547 20.3868932,11.3859826 20.3998074,11.3953381 C20.409801,11.4034644 20.4205149,11.4118006 20.4309912,11.4204153 C20.6739286,11.6161112 20.7550307,11.9337296 20.6753164,12.2113033 C20.6725301,12.2189804 20.6699962,12.2271254 20.6673284,12.2352096 C20.6487654,12.2946977 20.6220784,12.3519542 20.5879104,12.4055087 C20.5837084,12.4090518 20.5807948,12.4134868 20.5778358,12.4178888 C20.5090091,12.5237459 20.4093697,12.6136128 20.280313,12.6757513 L20.3685648,12.6257372 C20.335575,12.6475874 20.3007568,12.6668985 20.2643888,12.6833919 L4.37041043,20.3360747 C3.7583922,20.6307502 3.10119785,20.0250775 3.34503951,19.3910892 L3.34503951,19.3910892 L6.187,12 Z M16.6679108,12.7492272 L7.50591076,12.7492272 L5.424,18.163 L16.6679108,12.7492272 Z M5.424,5.836 L7.50591076,11.2492272 L16.6679108,11.2492272 L5.424,5.836 Z" id="Send" fill="#FFFFFF"></path>
    </g>
</svg>