<?xml version="1.0" encoding="UTF-8"?>
<svg width="24px" height="24px" viewBox="0 0 24 24" version="1.1" xmlns="http://www.w3.org/2000/svg" xmlns:xlink="http://www.w3.org/1999/xlink">
    <title>Icons / Burger</title>
    <g id="Icons-/-Burger" stroke="none" stroke-width="1" fill="none" fill-rule="evenodd">
        <rect id="transp" fill-opacity="0" fill="#D8D8D8" x="0" y="0" width="24" height="24"></rect>
        <path d="M19.2505378,6 C19.6644543,6 20,6.33578644 20,6.75 C20,7.12969577 19.7180484,7.44349096 19.3522353,7.49315338 L19.2505378,7.5 L4.75255303,7.5 C4.33863646,7.5 4.00309079,7.16421356 4.00309079,6.75 C4.00309079,6.37030423 4.28504236,6.05650904 4.65085544,6.00684662 L4.75255303,6 L19.2505378,6 Z M19.2505378,16.5031478 C19.6644543,16.5031478 20,16.8389343 20,17.2531478 C20,17.6328436 19.7180484,17.9466388 19.3522353,17.9963012 L19.2505378,18.0031478 L4.75255303,18.0031478 C4.33863646,18.0031478 4.00309079,17.6673614 4.00309079,17.2531478 C4.00309079,16.8734521 4.28504236,16.5596569 4.65085544,16.5099945 L4.75255303,16.5031478 L19.2505378,16.5031478 Z M19.247447,11.25 C19.6613635,11.25 19.9969092,11.5857864 19.9969092,12 C19.9969092,12.3796958 19.7149576,12.693491 19.3491446,12.7431534 L19.247447,12.75 L4.74946225,12.75 C4.33554568,12.75 4,12.4142136 4,12 C4,11.6203042 4.28195158,11.306509 4.64776466,11.2568466 L4.74946225,11.25 L19.247447,11.25 Z" id="Burger" fill="#FFFFFF"></path>
    </g>
</svg>