<?xml version="1.0" encoding="UTF-8"?>
<svg width="24px" height="24px" viewBox="0 0 24 24" version="1.1" xmlns="http://www.w3.org/2000/svg" xmlns:xlink="http://www.w3.org/1999/xlink">
    <title>Icons / Insta</title>
    <g id="Icons-/-Insta" stroke="none" stroke-width="1" fill="none" fill-rule="evenodd">
        <rect id="transp" fill-opacity="0" fill="#D8D8D8" x="0" y="0" width="24" height="24"></rect>
        <path d="M16.1666667,2.91666667 C18.8086775,2.91666667 20.9639704,5.00055386 21.0785428,7.61432573 L21.0833333,7.83333333 L21.0833333,16.1666667 C21.0833333,18.8086775 18.9994461,20.9639704 16.3856743,21.0785428 L16.1666667,21.0833333 L7.83333333,21.0833333 C5.1913225,21.0833333 3.03602961,18.9994461 2.92145717,16.3856743 L2.91666667,16.1666667 L2.91666667,7.83333333 C2.91666667,5.1913225 5.00055386,3.03602961 7.61432573,2.92145717 L7.83333333,2.91666667 L16.1666667,2.91666667 Z M16.1666667,4.41666667 L7.83333333,4.41666667 C6.00925953,4.41666667 4.51904323,5.84608051 4.42172222,7.6458704 L4.41666667,7.83333333 L4.41666667,16.1666667 C4.41666667,17.9907405 5.84608051,19.4809568 7.6458704,19.5782778 L7.83333333,19.5833333 L16.1666667,19.5833333 C17.9907405,19.5833333 19.4809568,18.1539195 19.5782778,16.3541296 L19.5833333,16.1666667 L19.5833333,7.83333333 C19.5833333,6.00925953 18.1539195,4.51904323 16.3541296,4.42172222 L16.1666667,4.41666667 Z M12.6350126,7.92477906 C14.4143014,8.18862522 15.8113748,9.58569861 16.0752209,11.3649874 C16.3336168,13.1075209 15.4453932,14.8193287 13.8718814,15.6113211 C12.2983696,16.4033135 10.394333,16.0969283 9.14870238,14.8512976 C7.90307173,13.605667 7.59668646,11.7016304 8.38867889,10.1281186 C9.18067133,8.55460684 10.8924791,7.66638324 12.6350126,7.92477906 Z M9.72853137,10.8025038 C9.22747493,11.7979909 9.42131051,13.0025854 10.2093625,13.7906375 C10.9974146,14.5786895 12.2020091,14.7725251 13.1974962,14.2714686 C14.1929832,13.7704122 14.7549206,12.6874318 14.5914457,11.5850126 C14.4245226,10.4593401 13.5406599,9.57547736 12.4149874,9.40855428 C11.3125682,9.24507937 10.2295878,9.80701675 9.72853137,10.8025038 Z M16.6827552,6.47477588 C17.1184833,6.53938889 17.4606111,6.8815167 17.5252241,7.31724484 C17.5885024,7.74397201 17.3709863,8.16317479 16.9856506,8.35712498 C16.600315,8.55107516 16.1340375,8.4760448 15.8289964,8.17100364 C15.5239552,7.86596247 15.4489248,7.399685 15.642875,7.01434937 C15.8368252,6.62901374 16.256028,6.4114976 16.6827552,6.47477588 Z" id="Insta" fill="#FFFFFF"></path>
    </g>
</svg>